# xmcd
#
# Track frame offsets: 
#        150
#        13772
#        27182
#        40063
#        53092
#        66360
#        80423
#        94344
#        107846
#        121642
#        136488
#        151100
#        163378
#        175546
#        188063
#        201974
#        215688
#        229489
#
# Disc length: 3274 seconds
#
# Revision: 0
# Processed by: cddbd v1.5.2PL0 Copyright (c) Steve Scherf et al.
# Submitted via: ExactAudioCopy v0.95b4
#
DISCID=f60cc812
DTITLE=Roosevelt Sykes - The Essential Roosevelt Sykes Disc 1
DYEAR=1900
DGENRE=Blues
TTITLE0=44 Blues
TTITLE1=Bury That Thing
TTITLE2=All My Money Gone Blues
TTITLE3=Barrel of Whiskey Blues (with Stump Johnson)
TTITLE4=Boot That Thing
TTITLE5=32: 20 Blues
TTITLE6=Mr. Carl's Blues (with Carl Rafferty)
TTITLE7=Dirty Mother for You (Take A)
TTITLE8=Nasty But It's Clean
TTITLE9=Mosby Stomp (with Mosby and Sykes)
TTITLE10=Jet Black Snake
TTITLE11=The Honey Dripper
TTITLE12=Roll On Blues
TTITLE13=Sister Kelly Blues
TTITLE14=Skett and Garrett
TTITLE15=Devil's Island Gin Blues
TTITLE16=Give Me Your Change
TTITLE17=I'm Tired of Being Mistreated
EXTD=
EXTT0=
EXTT1=
EXTT2=
EXTT3=
EXTT4=
EXTT5=
EXTT6=
EXTT7=
EXTT8=
EXTT9=
EXTT10=
EXTT11=
EXTT12=
EXTT13=
EXTT14=
EXTT15=
EXTT16=
EXTT17=
PLAYORDER=
